<mxfile host="65bd71144e" scale="5" border="0">
    <diagram id="uTMegRHnXxj8GpjTwaRi" name="Page-1">
        <mxGraphModel dx="1469" dy="1131" grid="0" gridSize="10" guides="1" tooltips="1" connect="1" arrows="1" fold="1" page="1" pageScale="1" pageWidth="850" pageHeight="1100" math="0" shadow="0">
            <root>
                <mxCell id="0"/>
                <mxCell id="1" parent="0"/>
                <mxCell id="14" style="edgeStyle=none;html=1;fontSize=29;fontStyle=1;strokeWidth=4;endArrow=block;endFill=1;strokeColor=#636363;" parent="1" source="3" target="5" edge="1">
                    <mxGeometry relative="1" as="geometry"/>
                </mxCell>
                <mxCell id="39" value="5" style="edgeLabel;html=1;align=center;verticalAlign=middle;resizable=0;points=[];fontSize=29;fontStyle=1" parent="14" vertex="1" connectable="0">
                    <mxGeometry x="-0.2615" relative="1" as="geometry">
                        <mxPoint x="12" y="-14" as="offset"/>
                    </mxGeometry>
                </mxCell>
                <mxCell id="3" value="3" style="ellipse;whiteSpace=wrap;html=1;aspect=fixed;fontSize=29;fontStyle=1;fillColor=#d5e8d4;strokeColor=#82b366;fontColor=#000000;" parent="1" vertex="1">
                    <mxGeometry x="365" y="265" width="80" height="80" as="geometry"/>
                </mxCell>
                <mxCell id="15" style="edgeStyle=none;html=1;fontSize=29;fontStyle=1;strokeWidth=4;endArrow=block;endFill=1;strokeColor=#636363;" parent="1" source="4" target="6" edge="1">
                    <mxGeometry relative="1" as="geometry"/>
                </mxCell>
                <mxCell id="22" value="15" style="edgeLabel;html=1;align=center;verticalAlign=middle;resizable=0;points=[];fontSize=29;fontStyle=1" parent="15" vertex="1" connectable="0">
                    <mxGeometry x="-0.155" y="1" relative="1" as="geometry">
                        <mxPoint as="offset"/>
                    </mxGeometry>
                </mxCell>
                <mxCell id="4" value="4" style="ellipse;whiteSpace=wrap;html=1;aspect=fixed;fontSize=29;fontStyle=1;fillColor=#d5e8d4;strokeColor=#82b366;fontColor=#000000;" parent="1" vertex="1">
                    <mxGeometry x="365" y="435" width="80" height="80" as="geometry"/>
                </mxCell>
                <mxCell id="13" style="edgeStyle=none;html=1;fontSize=29;fontStyle=1;strokeWidth=4;endArrow=block;endFill=1;strokeColor=#636363;" parent="1" source="5" target="6" edge="1">
                    <mxGeometry relative="1" as="geometry"/>
                </mxCell>
                <mxCell id="23" value="10" style="edgeLabel;html=1;align=center;verticalAlign=middle;resizable=0;points=[];fontSize=29;fontStyle=1" parent="13" vertex="1" connectable="0">
                    <mxGeometry x="0.1401" y="-2" relative="1" as="geometry">
                        <mxPoint as="offset"/>
                    </mxGeometry>
                </mxCell>
                <mxCell id="5" value="2" style="ellipse;whiteSpace=wrap;html=1;aspect=fixed;fontSize=29;fontStyle=1;fillColor=#d5e8d4;strokeColor=#82b366;fontColor=#000000;" parent="1" vertex="1">
                    <mxGeometry x="490" y="105" width="80" height="80" as="geometry"/>
                </mxCell>
                <mxCell id="6" value="T" style="ellipse;whiteSpace=wrap;html=1;aspect=fixed;fontSize=29;fontStyle=1;fillColor=#f8cecc;strokeColor=#b85450;fontColor=#000000;" parent="1" vertex="1">
                    <mxGeometry x="715" y="255" width="80" height="80" as="geometry"/>
                </mxCell>
                <mxCell id="12" style="edgeStyle=none;html=1;exitX=1;exitY=0.5;exitDx=0;exitDy=0;entryX=0;entryY=0.5;entryDx=0;entryDy=0;fontSize=29;fontStyle=1;strokeWidth=4;endArrow=block;endFill=1;strokeColor=#636363;" parent="1" source="7" target="5" edge="1">
                    <mxGeometry relative="1" as="geometry"/>
                </mxCell>
                <mxCell id="17" value="5" style="edgeLabel;html=1;align=center;verticalAlign=middle;resizable=0;points=[];fontSize=29;fontStyle=1" parent="12" vertex="1" connectable="0">
                    <mxGeometry x="-0.2133" y="-1" relative="1" as="geometry">
                        <mxPoint as="offset"/>
                    </mxGeometry>
                </mxCell>
                <mxCell id="7" value="1" style="ellipse;whiteSpace=wrap;html=1;aspect=fixed;fontSize=29;fontStyle=1;fillColor=#d5e8d4;strokeColor=#82b366;fontColor=#000000;" parent="1" vertex="1">
                    <mxGeometry x="265" y="105" width="80" height="80" as="geometry"/>
                </mxCell>
                <mxCell id="10" style="edgeStyle=none;html=1;fontSize=29;fontStyle=1;strokeWidth=4;endArrow=block;endFill=1;strokeColor=#636363;" parent="1" source="9" target="3" edge="1">
                    <mxGeometry relative="1" as="geometry"/>
                </mxCell>
                <mxCell id="19" value="10" style="edgeLabel;html=1;align=center;verticalAlign=middle;resizable=0;points=[];fontSize=29;fontStyle=1" parent="10" vertex="1" connectable="0">
                    <mxGeometry x="-0.1333" relative="1" as="geometry">
                        <mxPoint as="offset"/>
                    </mxGeometry>
                </mxCell>
                <mxCell id="11" style="edgeStyle=none;html=1;fontSize=29;fontStyle=1;strokeWidth=4;endArrow=block;endFill=1;strokeColor=#636363;" parent="1" source="9" target="7" edge="1">
                    <mxGeometry relative="1" as="geometry"/>
                </mxCell>
                <mxCell id="18" value="20" style="edgeLabel;html=1;align=center;verticalAlign=middle;resizable=0;points=[];fontSize=29;fontStyle=1" parent="11" vertex="1" connectable="0">
                    <mxGeometry x="0.1843" y="1" relative="1" as="geometry">
                        <mxPoint as="offset"/>
                    </mxGeometry>
                </mxCell>
                <mxCell id="16" style="edgeStyle=none;html=1;fontSize=29;fontStyle=1;strokeWidth=4;endArrow=block;endFill=1;strokeColor=#636363;" parent="1" source="9" target="4" edge="1">
                    <mxGeometry relative="1" as="geometry"/>
                </mxCell>
                <mxCell id="21" value="15" style="edgeLabel;html=1;align=center;verticalAlign=middle;resizable=0;points=[];fontSize=29;fontStyle=1" parent="16" vertex="1" connectable="0">
                    <mxGeometry x="-0.0916" y="-1" relative="1" as="geometry">
                        <mxPoint as="offset"/>
                    </mxGeometry>
                </mxCell>
                <mxCell id="9" value="S" style="ellipse;whiteSpace=wrap;html=1;aspect=fixed;fontSize=29;fontStyle=1;fillColor=#dae8fc;strokeColor=#6c8ebf;fontColor=#000000;" parent="1" vertex="1">
                    <mxGeometry x="15" y="265" width="80" height="80" as="geometry"/>
                </mxCell>
                <mxCell id="40" style="edgeStyle=none;html=1;fontSize=29;fontStyle=1;strokeWidth=4;endArrow=block;endFill=1;strokeColor=#636363;" parent="1" source="42" target="48" edge="1">
                    <mxGeometry relative="1" as="geometry"/>
                </mxCell>
                <mxCell id="41" value="0 / 5" style="edgeLabel;html=1;align=center;verticalAlign=middle;resizable=0;points=[];fontSize=29;fontStyle=1" parent="40" vertex="1" connectable="0">
                    <mxGeometry x="-0.2615" relative="1" as="geometry">
                        <mxPoint x="12" y="-14" as="offset"/>
                    </mxGeometry>
                </mxCell>
                <mxCell id="42" value="" style="ellipse;whiteSpace=wrap;html=1;aspect=fixed;fontSize=29;fontStyle=1;fillColor=#d5e8d4;strokeColor=#82b366;" parent="1" vertex="1">
                    <mxGeometry x="365" y="725" width="80" height="80" as="geometry"/>
                </mxCell>
                <mxCell id="43" style="edgeStyle=none;html=1;fontSize=29;fontStyle=1;strokeWidth=4;endArrow=block;endFill=1;strokeColor=#636363;" parent="1" source="45" target="49" edge="1">
                    <mxGeometry relative="1" as="geometry"/>
                </mxCell>
                <mxCell id="44" value="0 / 15" style="edgeLabel;html=1;align=center;verticalAlign=middle;resizable=0;points=[];fontSize=29;fontStyle=1" parent="43" vertex="1" connectable="0">
                    <mxGeometry x="-0.155" y="1" relative="1" as="geometry">
                        <mxPoint as="offset"/>
                    </mxGeometry>
                </mxCell>
                <mxCell id="45" value="?, ?" style="ellipse;whiteSpace=wrap;html=1;aspect=fixed;fontSize=29;fontStyle=1;fillColor=#d5e8d4;strokeColor=#82b366;" parent="1" vertex="1">
                    <mxGeometry x="365" y="895" width="80" height="80" as="geometry"/>
                </mxCell>
                <mxCell id="46" style="edgeStyle=none;html=1;fontSize=29;fontStyle=1;strokeWidth=4;endArrow=block;endFill=1;strokeColor=#636363;" parent="1" source="48" target="49" edge="1">
                    <mxGeometry relative="1" as="geometry"/>
                </mxCell>
                <mxCell id="47" value="0 / 10" style="edgeLabel;html=1;align=center;verticalAlign=middle;resizable=0;points=[];fontSize=29;fontStyle=1" parent="46" vertex="1" connectable="0">
                    <mxGeometry x="0.1401" y="-2" relative="1" as="geometry">
                        <mxPoint as="offset"/>
                    </mxGeometry>
                </mxCell>
                <mxCell id="48" value="" style="ellipse;whiteSpace=wrap;html=1;aspect=fixed;fontSize=29;fontStyle=1;fillColor=#d5e8d4;strokeColor=#82b366;" parent="1" vertex="1">
                    <mxGeometry x="490" y="565" width="80" height="80" as="geometry"/>
                </mxCell>
                <mxCell id="49" value="" style="ellipse;whiteSpace=wrap;html=1;aspect=fixed;fontSize=29;fontStyle=1;fillColor=#f8cecc;strokeColor=#b85450;" parent="1" vertex="1">
                    <mxGeometry x="715" y="715" width="80" height="80" as="geometry"/>
                </mxCell>
                <mxCell id="50" style="edgeStyle=none;html=1;exitX=1;exitY=0.5;exitDx=0;exitDy=0;entryX=0;entryY=0.5;entryDx=0;entryDy=0;fontSize=29;fontStyle=1;strokeWidth=4;endArrow=block;endFill=1;strokeColor=#636363;" parent="1" source="52" target="48" edge="1">
                    <mxGeometry relative="1" as="geometry"/>
                </mxCell>
                <mxCell id="51" value="0 / 5" style="edgeLabel;html=1;align=center;verticalAlign=middle;resizable=0;points=[];fontSize=29;fontStyle=1" parent="50" vertex="1" connectable="0">
                    <mxGeometry x="-0.2133" y="-1" relative="1" as="geometry">
                        <mxPoint as="offset"/>
                    </mxGeometry>
                </mxCell>
                <mxCell id="52" value="" style="ellipse;whiteSpace=wrap;html=1;aspect=fixed;fontSize=29;fontStyle=1;fillColor=#d5e8d4;strokeColor=#82b366;" parent="1" vertex="1">
                    <mxGeometry x="265" y="565" width="80" height="80" as="geometry"/>
                </mxCell>
                <mxCell id="53" style="edgeStyle=none;html=1;fontSize=29;fontStyle=1;strokeWidth=4;endArrow=block;endFill=1;strokeColor=#636363;" parent="1" source="59" target="42" edge="1">
                    <mxGeometry relative="1" as="geometry"/>
                </mxCell>
                <mxCell id="54" value="0 / 10" style="edgeLabel;html=1;align=center;verticalAlign=middle;resizable=0;points=[];fontSize=29;fontStyle=1" parent="53" vertex="1" connectable="0">
                    <mxGeometry x="-0.1333" relative="1" as="geometry">
                        <mxPoint as="offset"/>
                    </mxGeometry>
                </mxCell>
                <mxCell id="55" style="edgeStyle=none;html=1;fontSize=29;fontStyle=1;strokeWidth=4;endArrow=block;endFill=1;strokeColor=#636363;" parent="1" source="59" target="52" edge="1">
                    <mxGeometry relative="1" as="geometry"/>
                </mxCell>
                <mxCell id="56" value="0 / 20" style="edgeLabel;html=1;align=center;verticalAlign=middle;resizable=0;points=[];fontSize=29;fontStyle=1" parent="55" vertex="1" connectable="0">
                    <mxGeometry x="0.1843" y="1" relative="1" as="geometry">
                        <mxPoint as="offset"/>
                    </mxGeometry>
                </mxCell>
                <mxCell id="57" style="edgeStyle=none;html=1;fontSize=29;fontStyle=1;strokeWidth=4;endArrow=block;endFill=1;strokeColor=#636363;" parent="1" source="59" target="45" edge="1">
                    <mxGeometry relative="1" as="geometry"/>
                </mxCell>
                <mxCell id="58" value="0 / 15" style="edgeLabel;html=1;align=center;verticalAlign=middle;resizable=0;points=[];fontSize=29;fontStyle=1" parent="57" vertex="1" connectable="0">
                    <mxGeometry x="-0.0916" y="-1" relative="1" as="geometry">
                        <mxPoint as="offset"/>
                    </mxGeometry>
                </mxCell>
                <mxCell id="59" value="" style="ellipse;whiteSpace=wrap;html=1;aspect=fixed;fontSize=29;fontStyle=1;fillColor=#dae8fc;strokeColor=#6c8ebf;" parent="1" vertex="1">
                    <mxGeometry x="15" y="725" width="80" height="80" as="geometry"/>
                </mxCell>
                <mxCell id="60" style="edgeStyle=none;html=1;fontSize=29;fontStyle=1;strokeWidth=4;endArrow=block;endFill=1;strokeColor=#636363;" parent="1" source="62" target="68" edge="1">
                    <mxGeometry relative="1" as="geometry"/>
                </mxCell>
                <mxCell id="61" value="0 / 5" style="edgeLabel;html=1;align=center;verticalAlign=middle;resizable=0;points=[];fontSize=29;fontStyle=1" parent="60" vertex="1" connectable="0">
                    <mxGeometry x="-0.2615" relative="1" as="geometry">
                        <mxPoint x="12" y="-14" as="offset"/>
                    </mxGeometry>
                </mxCell>
                <mxCell id="62" value="0, 10" style="ellipse;whiteSpace=wrap;html=1;aspect=fixed;fontSize=29;fontStyle=1;fillColor=#d5e8d4;strokeColor=#82b366;" parent="1" vertex="1">
                    <mxGeometry x="380" y="1280" width="80" height="80" as="geometry"/>
                </mxCell>
                <mxCell id="63" style="edgeStyle=none;html=1;fontSize=29;fontStyle=1;strokeWidth=4;endArrow=block;endFill=1;strokeColor=#636363;" parent="1" source="65" target="69" edge="1">
                    <mxGeometry relative="1" as="geometry"/>
                </mxCell>
                <mxCell id="64" value="0 / 15" style="edgeLabel;html=1;align=center;verticalAlign=middle;resizable=0;points=[];fontSize=29;fontStyle=1" parent="63" vertex="1" connectable="0">
                    <mxGeometry x="-0.155" y="1" relative="1" as="geometry">
                        <mxPoint as="offset"/>
                    </mxGeometry>
                </mxCell>
                <mxCell id="65" value="0, 15" style="ellipse;whiteSpace=wrap;html=1;aspect=fixed;fontSize=29;fontStyle=1;fillColor=#d5e8d4;strokeColor=#82b366;fontColor=#000000;" parent="1" vertex="1">
                    <mxGeometry x="380" y="1450" width="80" height="80" as="geometry"/>
                </mxCell>
                <mxCell id="66" style="edgeStyle=none;html=1;fontSize=29;fontStyle=1;strokeWidth=4;endArrow=block;endFill=1;strokeColor=#636363;" parent="1" source="68" target="69" edge="1">
                    <mxGeometry relative="1" as="geometry"/>
                </mxCell>
                <mxCell id="67" value="0 / 10" style="edgeLabel;html=1;align=center;verticalAlign=middle;resizable=0;points=[];fontSize=29;fontStyle=1" parent="66" vertex="1" connectable="0">
                    <mxGeometry x="0.1401" y="-2" relative="1" as="geometry">
                        <mxPoint as="offset"/>
                    </mxGeometry>
                </mxCell>
                <mxCell id="68" value="0, 0" style="ellipse;whiteSpace=wrap;html=1;aspect=fixed;fontSize=29;fontStyle=1;fillColor=#d5e8d4;strokeColor=#82b366;" parent="1" vertex="1">
                    <mxGeometry x="505" y="1120" width="80" height="80" as="geometry"/>
                </mxCell>
                <mxCell id="69" value="0, 0" style="ellipse;whiteSpace=wrap;html=1;aspect=fixed;fontSize=29;fontStyle=1;fillColor=#f8cecc;strokeColor=#b85450;" parent="1" vertex="1">
                    <mxGeometry x="730" y="1270" width="80" height="80" as="geometry"/>
                </mxCell>
                <mxCell id="70" style="edgeStyle=none;html=1;exitX=1;exitY=0.5;exitDx=0;exitDy=0;entryX=0;entryY=0.5;entryDx=0;entryDy=0;fontSize=29;fontStyle=1;strokeWidth=4;endArrow=block;endFill=1;strokeColor=#636363;" parent="1" source="72" target="68" edge="1">
                    <mxGeometry relative="1" as="geometry"/>
                </mxCell>
                <mxCell id="71" value="0 / 5" style="edgeLabel;html=1;align=center;verticalAlign=middle;resizable=0;points=[];fontSize=29;fontStyle=1" parent="70" vertex="1" connectable="0">
                    <mxGeometry x="-0.2133" y="-1" relative="1" as="geometry">
                        <mxPoint as="offset"/>
                    </mxGeometry>
                </mxCell>
                <mxCell id="72" value="0, 20" style="ellipse;whiteSpace=wrap;html=1;aspect=fixed;fontSize=29;fontStyle=1;fillColor=#d5e8d4;strokeColor=#82b366;" parent="1" vertex="1">
                    <mxGeometry x="280" y="1120" width="80" height="80" as="geometry"/>
                </mxCell>
                <mxCell id="73" style="edgeStyle=none;html=1;fontSize=29;fontStyle=1;strokeWidth=4;endArrow=block;endFill=1;strokeColor=#636363;" parent="1" source="79" target="62" edge="1">
                    <mxGeometry relative="1" as="geometry"/>
                </mxCell>
                <mxCell id="74" value="10 / 10" style="edgeLabel;html=1;align=center;verticalAlign=middle;resizable=0;points=[];fontSize=29;fontStyle=1" parent="73" vertex="1" connectable="0">
                    <mxGeometry x="-0.1333" relative="1" as="geometry">
                        <mxPoint as="offset"/>
                    </mxGeometry>
                </mxCell>
                <mxCell id="75" style="edgeStyle=none;html=1;fontSize=29;fontStyle=1;strokeWidth=4;endArrow=block;endFill=1;strokeColor=#636363;" parent="1" source="79" target="72" edge="1">
                    <mxGeometry relative="1" as="geometry"/>
                </mxCell>
                <mxCell id="76" value="20 / 20" style="edgeLabel;html=1;align=center;verticalAlign=middle;resizable=0;points=[];fontSize=29;fontStyle=1" parent="75" vertex="1" connectable="0">
                    <mxGeometry x="0.1843" y="1" relative="1" as="geometry">
                        <mxPoint as="offset"/>
                    </mxGeometry>
                </mxCell>
                <mxCell id="77" style="edgeStyle=none;html=1;fontSize=29;fontStyle=1;strokeWidth=4;endArrow=block;endFill=1;strokeColor=#636363;" parent="1" source="79" target="65" edge="1">
                    <mxGeometry relative="1" as="geometry"/>
                </mxCell>
                <mxCell id="78" value="15 / 15" style="edgeLabel;html=1;align=center;verticalAlign=middle;resizable=0;points=[];fontSize=29;fontStyle=1" parent="77" vertex="1" connectable="0">
                    <mxGeometry x="-0.0916" y="-1" relative="1" as="geometry">
                        <mxPoint as="offset"/>
                    </mxGeometry>
                </mxCell>
                <mxCell id="79" value="6" style="ellipse;whiteSpace=wrap;html=1;aspect=fixed;fontSize=29;fontStyle=1;fillColor=#dae8fc;strokeColor=#6c8ebf;fontColor=#000000;" parent="1" vertex="1">
                    <mxGeometry x="30" y="1280" width="80" height="80" as="geometry"/>
                </mxCell>
                <mxCell id="80" style="edgeStyle=none;html=1;fontSize=29;fontStyle=1;strokeWidth=4;endArrow=block;endFill=1;strokeColor=#636363;" parent="1" source="82" target="88" edge="1">
                    <mxGeometry relative="1" as="geometry"/>
                </mxCell>
                <mxCell id="81" value="0 / 5" style="edgeLabel;html=1;align=center;verticalAlign=middle;resizable=0;points=[];fontSize=29;fontStyle=1" parent="80" vertex="1" connectable="0">
                    <mxGeometry x="-0.2615" relative="1" as="geometry">
                        <mxPoint x="12" y="-14" as="offset"/>
                    </mxGeometry>
                </mxCell>
                <mxCell id="82" value="1, 10" style="ellipse;whiteSpace=wrap;html=1;aspect=fixed;fontSize=29;fontStyle=1;fillColor=#d5e8d4;strokeColor=#82b366;fontColor=#000000;" parent="1" vertex="1">
                    <mxGeometry x="380" y="1730" width="80" height="80" as="geometry"/>
                </mxCell>
                <mxCell id="83" style="edgeStyle=none;html=1;fontSize=29;fontStyle=1;strokeWidth=4;endArrow=block;endFill=1;strokeColor=#636363;" parent="1" source="85" target="89" edge="1">
                    <mxGeometry relative="1" as="geometry"/>
                </mxCell>
                <mxCell id="84" value="0 / 15" style="edgeLabel;html=1;align=center;verticalAlign=middle;resizable=0;points=[];fontSize=29;fontStyle=1" parent="83" vertex="1" connectable="0">
                    <mxGeometry x="-0.155" y="1" relative="1" as="geometry">
                        <mxPoint as="offset"/>
                    </mxGeometry>
                </mxCell>
                <mxCell id="85" value="1, 15" style="ellipse;whiteSpace=wrap;html=1;aspect=fixed;fontSize=29;fontStyle=1;fillColor=#d5e8d4;strokeColor=#82b366;fontColor=#000000;" parent="1" vertex="1">
                    <mxGeometry x="380" y="1900" width="80" height="80" as="geometry"/>
                </mxCell>
                <mxCell id="86" style="edgeStyle=none;html=1;fontSize=29;fontStyle=1;strokeWidth=4;endArrow=block;endFill=1;strokeColor=#636363;" parent="1" source="88" target="89" edge="1">
                    <mxGeometry relative="1" as="geometry"/>
                </mxCell>
                <mxCell id="87" value="0 / 10" style="edgeLabel;html=1;align=center;verticalAlign=middle;resizable=0;points=[];fontSize=29;fontStyle=1" parent="86" vertex="1" connectable="0">
                    <mxGeometry x="0.1401" y="-2" relative="1" as="geometry">
                        <mxPoint as="offset"/>
                    </mxGeometry>
                </mxCell>
                <mxCell id="88" value="0, 0" style="ellipse;whiteSpace=wrap;html=1;aspect=fixed;fontSize=29;fontStyle=1;fillColor=#d5e8d4;strokeColor=#82b366;fontColor=#000000;" parent="1" vertex="1">
                    <mxGeometry x="505" y="1570" width="80" height="80" as="geometry"/>
                </mxCell>
                <mxCell id="89" value="0, 0" style="ellipse;whiteSpace=wrap;html=1;aspect=fixed;fontSize=29;fontStyle=1;fillColor=#f8cecc;strokeColor=#b85450;fontColor=#000000;" parent="1" vertex="1">
                    <mxGeometry x="730" y="1720" width="80" height="80" as="geometry"/>
                </mxCell>
                <mxCell id="90" style="edgeStyle=none;html=1;exitX=1;exitY=0.5;exitDx=0;exitDy=0;entryX=0;entryY=0.5;entryDx=0;entryDy=0;fontSize=29;fontStyle=1;strokeWidth=4;endArrow=block;endFill=1;strokeColor=#636363;" parent="1" source="92" target="88" edge="1">
                    <mxGeometry relative="1" as="geometry"/>
                </mxCell>
                <mxCell id="91" value="0 / 5" style="edgeLabel;html=1;align=center;verticalAlign=middle;resizable=0;points=[];fontSize=29;fontStyle=1" parent="90" vertex="1" connectable="0">
                    <mxGeometry x="-0.2133" y="-1" relative="1" as="geometry">
                        <mxPoint as="offset"/>
                    </mxGeometry>
                </mxCell>
                <mxCell id="92" value="1, 20" style="ellipse;whiteSpace=wrap;html=1;aspect=fixed;fontSize=29;fontStyle=1;fillColor=#d5e8d4;strokeColor=#82b366;fontColor=#000000;" parent="1" vertex="1">
                    <mxGeometry x="280" y="1570" width="80" height="80" as="geometry"/>
                </mxCell>
                <mxCell id="93" style="edgeStyle=none;html=1;fontSize=29;fontStyle=1;strokeWidth=4;endArrow=block;endFill=1;strokeColor=#636363;" parent="1" source="99" target="82" edge="1">
                    <mxGeometry relative="1" as="geometry"/>
                </mxCell>
                <mxCell id="94" value="10 / 10" style="edgeLabel;html=1;align=center;verticalAlign=middle;resizable=0;points=[];fontSize=29;fontStyle=1" parent="93" vertex="1" connectable="0">
                    <mxGeometry x="-0.1333" relative="1" as="geometry">
                        <mxPoint as="offset"/>
                    </mxGeometry>
                </mxCell>
                <mxCell id="95" style="edgeStyle=none;html=1;fontSize=29;fontStyle=1;strokeWidth=4;endArrow=block;endFill=1;strokeColor=#636363;" parent="1" source="99" target="92" edge="1">
                    <mxGeometry relative="1" as="geometry"/>
                </mxCell>
                <mxCell id="96" value="20 / 20" style="edgeLabel;html=1;align=center;verticalAlign=middle;resizable=0;points=[];fontSize=29;fontStyle=1" parent="95" vertex="1" connectable="0">
                    <mxGeometry x="0.1843" y="1" relative="1" as="geometry">
                        <mxPoint as="offset"/>
                    </mxGeometry>
                </mxCell>
                <mxCell id="97" style="edgeStyle=none;html=1;fontSize=29;fontStyle=1;strokeWidth=4;endArrow=block;endFill=1;strokeColor=#636363;" parent="1" source="99" target="85" edge="1">
                    <mxGeometry relative="1" as="geometry"/>
                </mxCell>
                <mxCell id="98" value="15 / 15" style="edgeLabel;html=1;align=center;verticalAlign=middle;resizable=0;points=[];fontSize=29;fontStyle=1" parent="97" vertex="1" connectable="0">
                    <mxGeometry x="-0.0916" y="-1" relative="1" as="geometry">
                        <mxPoint as="offset"/>
                    </mxGeometry>
                </mxCell>
                <mxCell id="99" value="6" style="ellipse;whiteSpace=wrap;html=1;aspect=fixed;fontSize=29;fontStyle=1;fillColor=#dae8fc;strokeColor=#6c8ebf;fontColor=#000000;" parent="1" vertex="1">
                    <mxGeometry x="30" y="1730" width="80" height="80" as="geometry"/>
                </mxCell>
                <mxCell id="101" style="edgeStyle=none;html=1;strokeColor=#636363;strokeWidth=4;fontSize=29;endArrow=block;endFill=1;" parent="1" edge="1">
                    <mxGeometry relative="1" as="geometry">
                        <mxPoint x="145" y="675" as="targetPoint"/>
                        <mxPoint x="85" y="675" as="sourcePoint"/>
                    </mxGeometry>
                </mxCell>
                <mxCell id="100" value="Потік" style="text;html=1;strokeColor=none;fillColor=none;align=center;verticalAlign=middle;whiteSpace=wrap;rounded=0;fontSize=29;" parent="1" vertex="1">
                    <mxGeometry x="12" y="659" width="60" height="30" as="geometry"/>
                </mxCell>
                <mxCell id="102" value="Місткість" style="text;html=1;strokeColor=none;fillColor=none;align=center;verticalAlign=middle;whiteSpace=wrap;rounded=0;fontSize=29;" parent="1" vertex="1">
                    <mxGeometry x="115" y="555" width="130" height="30" as="geometry"/>
                </mxCell>
                <mxCell id="103" style="edgeStyle=none;html=1;strokeColor=#636363;strokeWidth=4;fontSize=29;endArrow=block;endFill=1;" parent="1" edge="1">
                    <mxGeometry relative="1" as="geometry">
                        <mxPoint x="215" y="645" as="targetPoint"/>
                        <mxPoint x="215" y="595" as="sourcePoint"/>
                    </mxGeometry>
                </mxCell>
                <mxCell id="104" style="edgeStyle=none;html=1;fontSize=29;fontStyle=1;strokeWidth=4;endArrow=block;endFill=1;strokeColor=#636363;" parent="1" source="106" target="112" edge="1">
                    <mxGeometry relative="1" as="geometry"/>
                </mxCell>
                <mxCell id="105" value="5 / 5" style="edgeLabel;html=1;align=center;verticalAlign=middle;resizable=0;points=[];fontSize=29;fontStyle=1" parent="104" vertex="1" connectable="0">
                    <mxGeometry x="-0.2615" relative="1" as="geometry">
                        <mxPoint x="12" y="-14" as="offset"/>
                    </mxGeometry>
                </mxCell>
                <mxCell id="106" value="1, 5" style="ellipse;whiteSpace=wrap;html=1;aspect=fixed;fontSize=29;fontStyle=1;fillColor=#d5e8d4;strokeColor=#82b366;fontColor=#000000;" parent="1" vertex="1">
                    <mxGeometry x="383" y="2490" width="80" height="80" as="geometry"/>
                </mxCell>
                <mxCell id="107" style="edgeStyle=none;html=1;fontSize=29;fontStyle=1;strokeWidth=4;endArrow=block;endFill=1;strokeColor=#636363;" parent="1" source="109" target="113" edge="1">
                    <mxGeometry relative="1" as="geometry"/>
                </mxCell>
                <mxCell id="108" value="15 / 15" style="edgeLabel;html=1;align=center;verticalAlign=middle;resizable=0;points=[];fontSize=29;fontStyle=1" parent="107" vertex="1" connectable="0">
                    <mxGeometry x="-0.155" y="1" relative="1" as="geometry">
                        <mxPoint as="offset"/>
                    </mxGeometry>
                </mxCell>
                <mxCell id="109" value="1, 0" style="ellipse;whiteSpace=wrap;html=1;aspect=fixed;fontSize=29;fontStyle=1;fillColor=#d5e8d4;strokeColor=#82b366;fontColor=#000000;" parent="1" vertex="1">
                    <mxGeometry x="383" y="2660" width="80" height="80" as="geometry"/>
                </mxCell>
                <mxCell id="110" style="edgeStyle=none;html=1;fontSize=29;fontStyle=1;strokeWidth=4;endArrow=block;endFill=1;strokeColor=#636363;" parent="1" source="112" target="113" edge="1">
                    <mxGeometry relative="1" as="geometry"/>
                </mxCell>
                <mxCell id="111" value="0 / 10" style="edgeLabel;html=1;align=center;verticalAlign=middle;resizable=0;points=[];fontSize=29;fontStyle=1" parent="110" vertex="1" connectable="0">
                    <mxGeometry x="0.1401" y="-2" relative="1" as="geometry">
                        <mxPoint as="offset"/>
                    </mxGeometry>
                </mxCell>
                <mxCell id="112" value="0, 10" style="ellipse;whiteSpace=wrap;html=1;aspect=fixed;fontSize=29;fontStyle=1;fillColor=#d5e8d4;strokeColor=#82b366;fontColor=#000000;" parent="1" vertex="1">
                    <mxGeometry x="508" y="2330" width="80" height="80" as="geometry"/>
                </mxCell>
                <mxCell id="113" value="0, 15" style="ellipse;whiteSpace=wrap;html=1;aspect=fixed;fontSize=29;fontStyle=1;fillColor=#f8cecc;strokeColor=#b85450;fontColor=#000000;" parent="1" vertex="1">
                    <mxGeometry x="733" y="2480" width="80" height="80" as="geometry"/>
                </mxCell>
                <mxCell id="114" style="edgeStyle=none;html=1;exitX=1;exitY=0.5;exitDx=0;exitDy=0;entryX=0;entryY=0.5;entryDx=0;entryDy=0;fontSize=29;fontStyle=1;strokeWidth=4;endArrow=block;endFill=1;strokeColor=#636363;" parent="1" source="116" target="112" edge="1">
                    <mxGeometry relative="1" as="geometry"/>
                </mxCell>
                <mxCell id="115" value="5 / 5" style="edgeLabel;html=1;align=center;verticalAlign=middle;resizable=0;points=[];fontSize=29;fontStyle=1" parent="114" vertex="1" connectable="0">
                    <mxGeometry x="-0.2133" y="-1" relative="1" as="geometry">
                        <mxPoint as="offset"/>
                    </mxGeometry>
                </mxCell>
                <mxCell id="116" value="1, 15" style="ellipse;whiteSpace=wrap;html=1;aspect=fixed;fontSize=29;fontStyle=1;fillColor=#d5e8d4;strokeColor=#82b366;fontColor=#000000;" parent="1" vertex="1">
                    <mxGeometry x="283" y="2330" width="80" height="80" as="geometry"/>
                </mxCell>
                <mxCell id="117" style="edgeStyle=none;html=1;fontSize=29;fontStyle=1;strokeWidth=4;endArrow=block;endFill=1;strokeColor=#636363;" parent="1" source="123" target="106" edge="1">
                    <mxGeometry relative="1" as="geometry"/>
                </mxCell>
                <mxCell id="118" value="10 / 10" style="edgeLabel;html=1;align=center;verticalAlign=middle;resizable=0;points=[];fontSize=29;fontStyle=1" parent="117" vertex="1" connectable="0">
                    <mxGeometry x="-0.1333" relative="1" as="geometry">
                        <mxPoint as="offset"/>
                    </mxGeometry>
                </mxCell>
                <mxCell id="119" style="edgeStyle=none;html=1;fontSize=29;fontStyle=1;strokeWidth=4;endArrow=block;endFill=1;strokeColor=#636363;" parent="1" source="123" target="116" edge="1">
                    <mxGeometry relative="1" as="geometry"/>
                </mxCell>
                <mxCell id="120" value="20 / 20" style="edgeLabel;html=1;align=center;verticalAlign=middle;resizable=0;points=[];fontSize=29;fontStyle=1" parent="119" vertex="1" connectable="0">
                    <mxGeometry x="0.1843" y="1" relative="1" as="geometry">
                        <mxPoint as="offset"/>
                    </mxGeometry>
                </mxCell>
                <mxCell id="121" style="edgeStyle=none;html=1;fontSize=29;fontStyle=1;strokeWidth=4;endArrow=block;endFill=1;strokeColor=#636363;" parent="1" source="123" target="109" edge="1">
                    <mxGeometry relative="1" as="geometry"/>
                </mxCell>
                <mxCell id="122" value="15 / 15" style="edgeLabel;html=1;align=center;verticalAlign=middle;resizable=0;points=[];fontSize=29;fontStyle=1" parent="121" vertex="1" connectable="0">
                    <mxGeometry x="-0.0916" y="-1" relative="1" as="geometry">
                        <mxPoint as="offset"/>
                    </mxGeometry>
                </mxCell>
                <mxCell id="123" value="6" style="ellipse;whiteSpace=wrap;html=1;aspect=fixed;fontSize=29;fontStyle=1;fillColor=#dae8fc;strokeColor=#6c8ebf;fontColor=#000000;" parent="1" vertex="1">
                    <mxGeometry x="33" y="2490" width="80" height="80" as="geometry"/>
                </mxCell>
                <mxCell id="165" style="edgeStyle=none;html=1;fontSize=29;fontStyle=1;strokeWidth=4;endArrow=block;endFill=1;strokeColor=#636363;" parent="1" source="167" target="173" edge="1">
                    <mxGeometry relative="1" as="geometry"/>
                </mxCell>
                <mxCell id="166" value="5 / 5" style="edgeLabel;html=1;align=center;verticalAlign=middle;resizable=0;points=[];fontSize=29;fontStyle=1" parent="165" vertex="1" connectable="0">
                    <mxGeometry x="-0.2615" relative="1" as="geometry">
                        <mxPoint x="12" y="-14" as="offset"/>
                    </mxGeometry>
                </mxCell>
                <mxCell id="167" value="7, 0" style="ellipse;whiteSpace=wrap;html=1;aspect=fixed;fontSize=29;fontStyle=1;fillColor=#d5e8d4;strokeColor=#82b366;fontColor=#000000;" parent="1" vertex="1">
                    <mxGeometry x="368" y="2935" width="80" height="80" as="geometry"/>
                </mxCell>
                <mxCell id="168" style="edgeStyle=none;html=1;fontSize=29;fontStyle=1;strokeWidth=4;endArrow=block;endFill=1;strokeColor=#636363;" parent="1" source="170" target="174" edge="1">
                    <mxGeometry relative="1" as="geometry"/>
                </mxCell>
                <mxCell id="169" value="15 / 15" style="edgeLabel;html=1;align=center;verticalAlign=middle;resizable=0;points=[];fontSize=29;fontStyle=1" parent="168" vertex="1" connectable="0">
                    <mxGeometry x="-0.155" y="1" relative="1" as="geometry">
                        <mxPoint as="offset"/>
                    </mxGeometry>
                </mxCell>
                <mxCell id="170" value="1, 0" style="ellipse;whiteSpace=wrap;html=1;aspect=fixed;fontSize=29;fontStyle=1;fillColor=#d5e8d4;strokeColor=#82b366;fontColor=#000000;" parent="1" vertex="1">
                    <mxGeometry x="368" y="3105" width="80" height="80" as="geometry"/>
                </mxCell>
                <mxCell id="171" style="edgeStyle=none;html=1;fontSize=29;fontStyle=1;strokeWidth=4;endArrow=block;endFill=1;strokeColor=#636363;" parent="1" source="173" target="174" edge="1">
                    <mxGeometry relative="1" as="geometry"/>
                </mxCell>
                <mxCell id="172" value="0 / 10" style="edgeLabel;html=1;align=center;verticalAlign=middle;resizable=0;points=[];fontSize=29;fontStyle=1" parent="171" vertex="1" connectable="0">
                    <mxGeometry x="0.1401" y="-2" relative="1" as="geometry">
                        <mxPoint as="offset"/>
                    </mxGeometry>
                </mxCell>
                <mxCell id="173" value="0, 10" style="ellipse;whiteSpace=wrap;html=1;aspect=fixed;fontSize=29;fontStyle=1;fillColor=#d5e8d4;strokeColor=#82b366;fontColor=#000000;" parent="1" vertex="1">
                    <mxGeometry x="493" y="2775" width="80" height="80" as="geometry"/>
                </mxCell>
                <mxCell id="174" value="0, 15" style="ellipse;whiteSpace=wrap;html=1;aspect=fixed;fontSize=29;fontStyle=1;fillColor=#f8cecc;strokeColor=#b85450;fontColor=#000000;" parent="1" vertex="1">
                    <mxGeometry x="718" y="2925" width="80" height="80" as="geometry"/>
                </mxCell>
                <mxCell id="175" style="edgeStyle=none;html=1;exitX=1;exitY=0.5;exitDx=0;exitDy=0;entryX=0;entryY=0.5;entryDx=0;entryDy=0;fontSize=29;fontStyle=1;strokeWidth=4;endArrow=block;endFill=1;strokeColor=#636363;" parent="1" source="177" target="173" edge="1">
                    <mxGeometry relative="1" as="geometry"/>
                </mxCell>
                <mxCell id="176" value="5 / 5" style="edgeLabel;html=1;align=center;verticalAlign=middle;resizable=0;points=[];fontSize=29;fontStyle=1" parent="175" vertex="1" connectable="0">
                    <mxGeometry x="-0.2133" y="-1" relative="1" as="geometry">
                        <mxPoint as="offset"/>
                    </mxGeometry>
                </mxCell>
                <mxCell id="177" value="7, 0" style="ellipse;whiteSpace=wrap;html=1;aspect=fixed;fontSize=29;fontStyle=1;fillColor=#d5e8d4;strokeColor=#82b366;fontColor=#000000;" parent="1" vertex="1">
                    <mxGeometry x="268" y="2775" width="80" height="80" as="geometry"/>
                </mxCell>
                <mxCell id="178" style="edgeStyle=orthogonalEdgeStyle;html=1;fontSize=29;fontStyle=1;strokeWidth=4;endArrow=block;endFill=1;strokeColor=#636363;curved=1;" parent="1" target="167" edge="1">
                    <mxGeometry relative="1" as="geometry">
                        <mxPoint x="98" y="2985" as="sourcePoint"/>
                        <mxPoint x="368" y="2985" as="targetPoint"/>
                        <Array as="points">
                            <mxPoint x="98" y="3005"/>
                        </Array>
                    </mxGeometry>
                </mxCell>
                <mxCell id="179" value="10 / 10" style="edgeLabel;html=1;align=center;verticalAlign=middle;resizable=0;points=[];fontSize=29;fontStyle=1" parent="178" vertex="1" connectable="0">
                    <mxGeometry x="-0.1333" relative="1" as="geometry">
                        <mxPoint as="offset"/>
                    </mxGeometry>
                </mxCell>
                <mxCell id="180" style="edgeStyle=orthogonalEdgeStyle;html=1;fontSize=29;fontStyle=1;strokeWidth=4;endArrow=block;endFill=1;strokeColor=#636363;curved=1;" parent="1" source="184" target="177" edge="1">
                    <mxGeometry relative="1" as="geometry">
                        <Array as="points">
                            <mxPoint x="298" y="2945"/>
                        </Array>
                    </mxGeometry>
                </mxCell>
                <mxCell id="181" value="20 / 20" style="edgeLabel;html=1;align=center;verticalAlign=middle;resizable=0;points=[];fontSize=29;fontStyle=1" parent="180" vertex="1" connectable="0">
                    <mxGeometry x="0.1843" y="1" relative="1" as="geometry">
                        <mxPoint x="-47" y="-19" as="offset"/>
                    </mxGeometry>
                </mxCell>
                <mxCell id="182" style="edgeStyle=orthogonalEdgeStyle;html=1;fontSize=29;fontStyle=1;strokeWidth=4;endArrow=block;endFill=1;strokeColor=#636363;curved=1;" parent="1" source="184" target="170" edge="1">
                    <mxGeometry relative="1" as="geometry">
                        <Array as="points">
                            <mxPoint x="78" y="3135"/>
                        </Array>
                    </mxGeometry>
                </mxCell>
                <mxCell id="183" value="15 / 15" style="edgeLabel;html=1;align=center;verticalAlign=middle;resizable=0;points=[];fontSize=29;fontStyle=1" parent="182" vertex="1" connectable="0">
                    <mxGeometry x="-0.0916" y="-1" relative="1" as="geometry">
                        <mxPoint as="offset"/>
                    </mxGeometry>
                </mxCell>
                <mxCell id="184" value="6" style="ellipse;whiteSpace=wrap;html=1;aspect=fixed;fontSize=29;fontStyle=1;fillColor=#dae8fc;strokeColor=#6c8ebf;fontColor=#000000;" parent="1" vertex="1">
                    <mxGeometry x="18" y="2935" width="80" height="80" as="geometry"/>
                </mxCell>
                <mxCell id="185" value="" style="endArrow=classic;html=1;strokeColor=#C23B25;strokeWidth=4;fontSize=29;edgeStyle=orthogonalEdgeStyle;curved=1;" parent="1" source="177" target="184" edge="1">
                    <mxGeometry width="50" height="50" relative="1" as="geometry">
                        <mxPoint x="168" y="2775" as="sourcePoint"/>
                        <mxPoint x="18" y="2875" as="targetPoint"/>
                    </mxGeometry>
                </mxCell>
                <mxCell id="187" value="&lt;b&gt;15 / 20&lt;/b&gt;" style="edgeLabel;html=1;align=center;verticalAlign=middle;resizable=0;points=[];fontSize=29;" parent="185" vertex="1" connectable="0">
                    <mxGeometry x="-0.2492" y="5" relative="1" as="geometry">
                        <mxPoint y="5" as="offset"/>
                    </mxGeometry>
                </mxCell>
                <mxCell id="195" style="edgeStyle=orthogonalEdgeStyle;html=1;fontSize=29;fontStyle=1;strokeWidth=4;endArrow=block;endFill=1;strokeColor=#C23B25;curved=1;" parent="1" source="167" target="184" edge="1">
                    <mxGeometry relative="1" as="geometry">
                        <mxPoint x="108" y="2995" as="sourcePoint"/>
                        <mxPoint x="378" y="2995" as="targetPoint"/>
                        <Array as="points">
                            <mxPoint x="228" y="2965"/>
                            <mxPoint x="228" y="2965"/>
                        </Array>
                    </mxGeometry>
                </mxCell>
                <mxCell id="196" value="5 / 10" style="edgeLabel;html=1;align=center;verticalAlign=middle;resizable=0;points=[];fontSize=29;fontStyle=1" parent="195" vertex="1" connectable="0">
                    <mxGeometry x="-0.1333" relative="1" as="geometry">
                        <mxPoint as="offset"/>
                    </mxGeometry>
                </mxCell>
                <mxCell id="197" style="edgeStyle=none;html=1;fontSize=29;fontStyle=1;strokeWidth=4;endArrow=block;endFill=1;strokeColor=#636363;" parent="1" source="199" target="205" edge="1">
                    <mxGeometry relative="1" as="geometry"/>
                </mxCell>
                <mxCell id="198" value="5 / 5" style="edgeLabel;html=1;align=center;verticalAlign=middle;resizable=0;points=[];fontSize=29;fontStyle=1" parent="197" vertex="1" connectable="0">
                    <mxGeometry x="-0.2615" relative="1" as="geometry">
                        <mxPoint x="12" y="-14" as="offset"/>
                    </mxGeometry>
                </mxCell>
                <mxCell id="199" value="7, 0" style="ellipse;whiteSpace=wrap;html=1;aspect=fixed;fontSize=29;fontStyle=1;fillColor=#d5e8d4;strokeColor=#82b366;fontColor=#000000;" parent="1" vertex="1">
                    <mxGeometry x="383" y="3503" width="80" height="80" as="geometry"/>
                </mxCell>
                <mxCell id="200" style="edgeStyle=none;html=1;fontSize=29;fontStyle=1;strokeWidth=4;endArrow=block;endFill=1;strokeColor=#636363;" parent="1" source="202" target="206" edge="1">
                    <mxGeometry relative="1" as="geometry"/>
                </mxCell>
                <mxCell id="201" value="15 / 15" style="edgeLabel;html=1;align=center;verticalAlign=middle;resizable=0;points=[];fontSize=29;fontStyle=1" parent="200" vertex="1" connectable="0">
                    <mxGeometry x="-0.155" y="1" relative="1" as="geometry">
                        <mxPoint as="offset"/>
                    </mxGeometry>
                </mxCell>
                <mxCell id="202" value="1, 0" style="ellipse;whiteSpace=wrap;html=1;aspect=fixed;fontSize=29;fontStyle=1;fillColor=#d5e8d4;strokeColor=#82b366;fontColor=#000000;" parent="1" vertex="1">
                    <mxGeometry x="383" y="3673" width="80" height="80" as="geometry"/>
                </mxCell>
                <mxCell id="203" style="edgeStyle=none;html=1;fontSize=29;fontStyle=1;strokeWidth=4;endArrow=block;endFill=1;strokeColor=#636363;" parent="1" source="205" target="206" edge="1">
                    <mxGeometry relative="1" as="geometry"/>
                </mxCell>
                <mxCell id="204" value="0 / 10" style="edgeLabel;html=1;align=center;verticalAlign=middle;resizable=0;points=[];fontSize=29;fontStyle=1" parent="203" vertex="1" connectable="0">
                    <mxGeometry x="0.1401" y="-2" relative="1" as="geometry">
                        <mxPoint as="offset"/>
                    </mxGeometry>
                </mxCell>
                <mxCell id="205" value="1, 10" style="ellipse;whiteSpace=wrap;html=1;aspect=fixed;fontSize=29;fontStyle=1;fillColor=#d5e8d4;strokeColor=#82b366;fontColor=#000000;" parent="1" vertex="1">
                    <mxGeometry x="508" y="3343" width="80" height="80" as="geometry"/>
                </mxCell>
                <mxCell id="206" value="0, 15" style="ellipse;whiteSpace=wrap;html=1;aspect=fixed;fontSize=29;fontStyle=1;fillColor=#f8cecc;strokeColor=#b85450;fontColor=#000000;" parent="1" vertex="1">
                    <mxGeometry x="733" y="3493" width="80" height="80" as="geometry"/>
                </mxCell>
                <mxCell id="207" style="edgeStyle=none;html=1;exitX=1;exitY=0.5;exitDx=0;exitDy=0;entryX=0;entryY=0.5;entryDx=0;entryDy=0;fontSize=29;fontStyle=1;strokeWidth=4;endArrow=block;endFill=1;strokeColor=#636363;" parent="1" source="209" target="205" edge="1">
                    <mxGeometry relative="1" as="geometry"/>
                </mxCell>
                <mxCell id="208" value="5 / 5" style="edgeLabel;html=1;align=center;verticalAlign=middle;resizable=0;points=[];fontSize=29;fontStyle=1" parent="207" vertex="1" connectable="0">
                    <mxGeometry x="-0.2133" y="-1" relative="1" as="geometry">
                        <mxPoint as="offset"/>
                    </mxGeometry>
                </mxCell>
                <mxCell id="209" value="7, 0" style="ellipse;whiteSpace=wrap;html=1;aspect=fixed;fontSize=29;fontStyle=1;fillColor=#d5e8d4;strokeColor=#82b366;fontColor=#000000;" parent="1" vertex="1">
                    <mxGeometry x="283" y="3343" width="80" height="80" as="geometry"/>
                </mxCell>
                <mxCell id="210" style="edgeStyle=orthogonalEdgeStyle;html=1;fontSize=29;fontStyle=1;strokeWidth=4;endArrow=block;endFill=1;strokeColor=#636363;curved=1;" parent="1" target="199" edge="1">
                    <mxGeometry relative="1" as="geometry">
                        <mxPoint x="113" y="3553" as="sourcePoint"/>
                        <mxPoint x="383" y="3553" as="targetPoint"/>
                        <Array as="points">
                            <mxPoint x="113" y="3573"/>
                        </Array>
                    </mxGeometry>
                </mxCell>
                <mxCell id="211" value="10 / 10" style="edgeLabel;html=1;align=center;verticalAlign=middle;resizable=0;points=[];fontSize=29;fontStyle=1" parent="210" vertex="1" connectable="0">
                    <mxGeometry x="-0.1333" relative="1" as="geometry">
                        <mxPoint as="offset"/>
                    </mxGeometry>
                </mxCell>
                <mxCell id="212" style="edgeStyle=orthogonalEdgeStyle;html=1;fontSize=29;fontStyle=1;strokeWidth=4;endArrow=block;endFill=1;strokeColor=#636363;curved=1;" parent="1" source="216" target="209" edge="1">
                    <mxGeometry relative="1" as="geometry">
                        <Array as="points">
                            <mxPoint x="313" y="3513"/>
                        </Array>
                    </mxGeometry>
                </mxCell>
                <mxCell id="213" value="20 / 20" style="edgeLabel;html=1;align=center;verticalAlign=middle;resizable=0;points=[];fontSize=29;fontStyle=1" parent="212" vertex="1" connectable="0">
                    <mxGeometry x="0.1843" y="1" relative="1" as="geometry">
                        <mxPoint x="-47" y="-19" as="offset"/>
                    </mxGeometry>
                </mxCell>
                <mxCell id="214" style="edgeStyle=orthogonalEdgeStyle;html=1;fontSize=29;fontStyle=1;strokeWidth=4;endArrow=block;endFill=1;strokeColor=#636363;curved=1;" parent="1" source="216" target="202" edge="1">
                    <mxGeometry relative="1" as="geometry">
                        <Array as="points">
                            <mxPoint x="93" y="3703"/>
                        </Array>
                    </mxGeometry>
                </mxCell>
                <mxCell id="215" value="15 / 15" style="edgeLabel;html=1;align=center;verticalAlign=middle;resizable=0;points=[];fontSize=29;fontStyle=1" parent="214" vertex="1" connectable="0">
                    <mxGeometry x="-0.0916" y="-1" relative="1" as="geometry">
                        <mxPoint as="offset"/>
                    </mxGeometry>
                </mxCell>
                <mxCell id="216" value="6" style="ellipse;whiteSpace=wrap;html=1;aspect=fixed;fontSize=29;fontStyle=1;fillColor=#dae8fc;strokeColor=#6c8ebf;fontColor=#000000;" parent="1" vertex="1">
                    <mxGeometry x="33" y="3503" width="80" height="80" as="geometry"/>
                </mxCell>
                <mxCell id="217" value="" style="endArrow=classic;html=1;strokeColor=#C23B25;strokeWidth=4;fontSize=29;edgeStyle=orthogonalEdgeStyle;curved=1;" parent="1" source="209" target="216" edge="1">
                    <mxGeometry width="50" height="50" relative="1" as="geometry">
                        <mxPoint x="183" y="3343" as="sourcePoint"/>
                        <mxPoint x="33" y="3443" as="targetPoint"/>
                    </mxGeometry>
                </mxCell>
                <mxCell id="218" value="&lt;b&gt;15 / 20&lt;/b&gt;" style="edgeLabel;html=1;align=center;verticalAlign=middle;resizable=0;points=[];fontSize=29;" parent="217" vertex="1" connectable="0">
                    <mxGeometry x="-0.2492" y="5" relative="1" as="geometry">
                        <mxPoint y="5" as="offset"/>
                    </mxGeometry>
                </mxCell>
                <mxCell id="219" style="edgeStyle=orthogonalEdgeStyle;html=1;fontSize=29;fontStyle=1;strokeWidth=4;endArrow=block;endFill=1;strokeColor=#C23B25;curved=1;" parent="1" source="199" target="216" edge="1">
                    <mxGeometry relative="1" as="geometry">
                        <mxPoint x="123" y="3563" as="sourcePoint"/>
                        <mxPoint x="393" y="3563" as="targetPoint"/>
                        <Array as="points">
                            <mxPoint x="243" y="3533"/>
                            <mxPoint x="243" y="3533"/>
                        </Array>
                    </mxGeometry>
                </mxCell>
                <mxCell id="220" value="5 / 10" style="edgeLabel;html=1;align=center;verticalAlign=middle;resizable=0;points=[];fontSize=29;fontStyle=1" parent="219" vertex="1" connectable="0">
                    <mxGeometry x="-0.1333" relative="1" as="geometry">
                        <mxPoint as="offset"/>
                    </mxGeometry>
                </mxCell>
                <mxCell id="221" style="edgeStyle=none;html=1;fontSize=29;fontStyle=1;strokeWidth=4;endArrow=block;endFill=1;strokeColor=#636363;" parent="1" source="223" target="229" edge="1">
                    <mxGeometry relative="1" as="geometry"/>
                </mxCell>
                <mxCell id="222" value="5 / 5" style="edgeLabel;html=1;align=center;verticalAlign=middle;resizable=0;points=[];fontSize=29;fontStyle=1" parent="221" vertex="1" connectable="0">
                    <mxGeometry x="-0.2615" relative="1" as="geometry">
                        <mxPoint x="12" y="-14" as="offset"/>
                    </mxGeometry>
                </mxCell>
                <mxCell id="223" value="7, 0" style="ellipse;whiteSpace=wrap;html=1;aspect=fixed;fontSize=29;fontStyle=1;fillColor=#d5e8d4;strokeColor=#82b366;fontColor=#000000;" parent="1" vertex="1">
                    <mxGeometry x="368" y="4000" width="80" height="80" as="geometry"/>
                </mxCell>
                <mxCell id="224" style="edgeStyle=none;html=1;fontSize=29;fontStyle=1;strokeWidth=4;endArrow=block;endFill=1;strokeColor=#636363;" parent="1" source="226" target="230" edge="1">
                    <mxGeometry relative="1" as="geometry"/>
                </mxCell>
                <mxCell id="225" value="15 / 15" style="edgeLabel;html=1;align=center;verticalAlign=middle;resizable=0;points=[];fontSize=29;fontStyle=1" parent="224" vertex="1" connectable="0">
                    <mxGeometry x="-0.155" y="1" relative="1" as="geometry">
                        <mxPoint as="offset"/>
                    </mxGeometry>
                </mxCell>
                <mxCell id="226" value="1, 0" style="ellipse;whiteSpace=wrap;html=1;aspect=fixed;fontSize=29;fontStyle=1;fillColor=#d5e8d4;strokeColor=#82b366;fontColor=#000000;" parent="1" vertex="1">
                    <mxGeometry x="368" y="4170" width="80" height="80" as="geometry"/>
                </mxCell>
                <mxCell id="227" style="edgeStyle=none;html=1;fontSize=29;fontStyle=1;strokeWidth=4;endArrow=block;endFill=1;strokeColor=#636363;" parent="1" source="229" target="230" edge="1">
                    <mxGeometry relative="1" as="geometry"/>
                </mxCell>
                <mxCell id="228" value="10 / 10" style="edgeLabel;html=1;align=center;verticalAlign=middle;resizable=0;points=[];fontSize=29;fontStyle=1" parent="227" vertex="1" connectable="0">
                    <mxGeometry x="0.1401" y="-2" relative="1" as="geometry">
                        <mxPoint as="offset"/>
                    </mxGeometry>
                </mxCell>
                <mxCell id="229" value="1, 0" style="ellipse;whiteSpace=wrap;html=1;aspect=fixed;fontSize=29;fontStyle=1;fillColor=#d5e8d4;strokeColor=#82b366;fontColor=#000000;" parent="1" vertex="1">
                    <mxGeometry x="493" y="3840" width="80" height="80" as="geometry"/>
                </mxCell>
                <mxCell id="230" value="0, 25" style="ellipse;whiteSpace=wrap;html=1;aspect=fixed;fontSize=29;fontStyle=1;fillColor=#f8cecc;strokeColor=#b85450;fontColor=#000000;" parent="1" vertex="1">
                    <mxGeometry x="718" y="3990" width="80" height="80" as="geometry"/>
                </mxCell>
                <mxCell id="231" style="edgeStyle=none;html=1;exitX=1;exitY=0.5;exitDx=0;exitDy=0;entryX=0;entryY=0.5;entryDx=0;entryDy=0;fontSize=29;fontStyle=1;strokeWidth=4;endArrow=block;endFill=1;strokeColor=#636363;" parent="1" source="233" target="229" edge="1">
                    <mxGeometry relative="1" as="geometry"/>
                </mxCell>
                <mxCell id="232" value="5 / 5" style="edgeLabel;html=1;align=center;verticalAlign=middle;resizable=0;points=[];fontSize=29;fontStyle=1" parent="231" vertex="1" connectable="0">
                    <mxGeometry x="-0.2133" y="-1" relative="1" as="geometry">
                        <mxPoint as="offset"/>
                    </mxGeometry>
                </mxCell>
                <mxCell id="233" value="7, 0" style="ellipse;whiteSpace=wrap;html=1;aspect=fixed;fontSize=29;fontStyle=1;fillColor=#d5e8d4;strokeColor=#82b366;fontColor=#000000;" parent="1" vertex="1">
                    <mxGeometry x="268" y="3840" width="80" height="80" as="geometry"/>
                </mxCell>
                <mxCell id="234" style="edgeStyle=orthogonalEdgeStyle;html=1;fontSize=29;fontStyle=1;strokeWidth=4;endArrow=block;endFill=1;strokeColor=#636363;curved=1;" parent="1" target="223" edge="1">
                    <mxGeometry relative="1" as="geometry">
                        <mxPoint x="98" y="4050" as="sourcePoint"/>
                        <mxPoint x="368" y="4050" as="targetPoint"/>
                        <Array as="points">
                            <mxPoint x="98" y="4070"/>
                        </Array>
                    </mxGeometry>
                </mxCell>
                <mxCell id="235" value="10 / 10" style="edgeLabel;html=1;align=center;verticalAlign=middle;resizable=0;points=[];fontSize=29;fontStyle=1" parent="234" vertex="1" connectable="0">
                    <mxGeometry x="-0.1333" relative="1" as="geometry">
                        <mxPoint as="offset"/>
                    </mxGeometry>
                </mxCell>
                <mxCell id="236" style="edgeStyle=orthogonalEdgeStyle;html=1;fontSize=29;fontStyle=1;strokeWidth=4;endArrow=block;endFill=1;strokeColor=#636363;curved=1;" parent="1" source="240" target="233" edge="1">
                    <mxGeometry relative="1" as="geometry">
                        <Array as="points">
                            <mxPoint x="298" y="4010"/>
                        </Array>
                    </mxGeometry>
                </mxCell>
                <mxCell id="237" value="20 / 20" style="edgeLabel;html=1;align=center;verticalAlign=middle;resizable=0;points=[];fontSize=29;fontStyle=1" parent="236" vertex="1" connectable="0">
                    <mxGeometry x="0.1843" y="1" relative="1" as="geometry">
                        <mxPoint x="-47" y="-19" as="offset"/>
                    </mxGeometry>
                </mxCell>
                <mxCell id="238" style="edgeStyle=orthogonalEdgeStyle;html=1;fontSize=29;fontStyle=1;strokeWidth=4;endArrow=block;endFill=1;strokeColor=#636363;curved=1;" parent="1" source="240" target="226" edge="1">
                    <mxGeometry relative="1" as="geometry">
                        <Array as="points">
                            <mxPoint x="78" y="4200"/>
                        </Array>
                    </mxGeometry>
                </mxCell>
                <mxCell id="239" value="15 / 15" style="edgeLabel;html=1;align=center;verticalAlign=middle;resizable=0;points=[];fontSize=29;fontStyle=1" parent="238" vertex="1" connectable="0">
                    <mxGeometry x="-0.0916" y="-1" relative="1" as="geometry">
                        <mxPoint as="offset"/>
                    </mxGeometry>
                </mxCell>
                <mxCell id="240" value="6" style="ellipse;whiteSpace=wrap;html=1;aspect=fixed;fontSize=29;fontStyle=1;fillColor=#dae8fc;strokeColor=#6c8ebf;fontColor=#000000;" parent="1" vertex="1">
                    <mxGeometry x="18" y="4000" width="80" height="80" as="geometry"/>
                </mxCell>
                <mxCell id="241" value="" style="endArrow=classic;html=1;strokeColor=#C23B25;strokeWidth=4;fontSize=29;edgeStyle=orthogonalEdgeStyle;curved=1;" parent="1" source="233" target="240" edge="1">
                    <mxGeometry width="50" height="50" relative="1" as="geometry">
                        <mxPoint x="168" y="3840" as="sourcePoint"/>
                        <mxPoint x="18" y="3940" as="targetPoint"/>
                    </mxGeometry>
                </mxCell>
                <mxCell id="242" value="&lt;b&gt;15 / 20&lt;/b&gt;" style="edgeLabel;html=1;align=center;verticalAlign=middle;resizable=0;points=[];fontSize=29;" parent="241" vertex="1" connectable="0">
                    <mxGeometry x="-0.2492" y="5" relative="1" as="geometry">
                        <mxPoint y="5" as="offset"/>
                    </mxGeometry>
                </mxCell>
                <mxCell id="243" style="edgeStyle=orthogonalEdgeStyle;html=1;fontSize=29;fontStyle=1;strokeWidth=4;endArrow=block;endFill=1;strokeColor=#C23B25;curved=1;" parent="1" source="223" target="240" edge="1">
                    <mxGeometry relative="1" as="geometry">
                        <mxPoint x="108" y="4060" as="sourcePoint"/>
                        <mxPoint x="378" y="4060" as="targetPoint"/>
                        <Array as="points">
                            <mxPoint x="228" y="4030"/>
                            <mxPoint x="228" y="4030"/>
                        </Array>
                    </mxGeometry>
                </mxCell>
                <mxCell id="244" value="5 / 10" style="edgeLabel;html=1;align=center;verticalAlign=middle;resizable=0;points=[];fontSize=29;fontStyle=1" parent="243" vertex="1" connectable="0">
                    <mxGeometry x="-0.1333" relative="1" as="geometry">
                        <mxPoint as="offset"/>
                    </mxGeometry>
                </mxCell>
                <mxCell id="245" style="edgeStyle=none;html=1;strokeColor=#636363;strokeWidth=4;fontSize=29;endArrow=block;endFill=1;" parent="1" edge="1">
                    <mxGeometry relative="1" as="geometry">
                        <mxPoint x="358" y="936" as="targetPoint"/>
                        <mxPoint x="298" y="936" as="sourcePoint"/>
                    </mxGeometry>
                </mxCell>
                <mxCell id="246" value="Висота" style="text;html=1;strokeColor=none;fillColor=none;align=center;verticalAlign=middle;whiteSpace=wrap;rounded=0;fontSize=29;" parent="1" vertex="1">
                    <mxGeometry x="205" y="920" width="60" height="30" as="geometry"/>
                </mxCell>
                <mxCell id="247" value="Вхід" style="text;html=1;strokeColor=none;fillColor=none;align=center;verticalAlign=middle;whiteSpace=wrap;rounded=0;fontSize=29;" parent="1" vertex="1">
                    <mxGeometry x="525" y="920" width="90" height="30" as="geometry"/>
                </mxCell>
                <mxCell id="248" style="edgeStyle=none;html=1;strokeColor=#636363;strokeWidth=4;fontSize=29;endArrow=block;endFill=1;" parent="1" edge="1">
                    <mxGeometry relative="1" as="geometry">
                        <mxPoint x="455" y="935" as="targetPoint"/>
                        <mxPoint x="525" y="935" as="sourcePoint"/>
                    </mxGeometry>
                </mxCell>
                <mxCell id="249" value="" style="ellipse;whiteSpace=wrap;html=1;aspect=fixed;fontSize=29;fontStyle=1;fillColor=#dae8fc;strokeColor=#6c8ebf;fontColor=#000000;" vertex="1" parent="1">
                    <mxGeometry x="15" y="725" width="80" height="80" as="geometry"/>
                </mxCell>
                <mxCell id="250" value="" style="ellipse;whiteSpace=wrap;html=1;aspect=fixed;fontSize=29;fontStyle=1;fillColor=#d5e8d4;strokeColor=#82b366;fontColor=#000000;" vertex="1" parent="1">
                    <mxGeometry x="265" y="565" width="80" height="80" as="geometry"/>
                </mxCell>
                <mxCell id="251" value="" style="ellipse;whiteSpace=wrap;html=1;aspect=fixed;fontSize=29;fontStyle=1;fillColor=#d5e8d4;strokeColor=#82b366;fontColor=#000000;" vertex="1" parent="1">
                    <mxGeometry x="365" y="725" width="80" height="80" as="geometry"/>
                </mxCell>
                <mxCell id="252" value="" style="ellipse;whiteSpace=wrap;html=1;aspect=fixed;fontSize=29;fontStyle=1;fillColor=#d5e8d4;strokeColor=#82b366;fontColor=#000000;" vertex="1" parent="1">
                    <mxGeometry x="490" y="565" width="80" height="80" as="geometry"/>
                </mxCell>
                <mxCell id="253" value="" style="ellipse;whiteSpace=wrap;html=1;aspect=fixed;fontSize=29;fontStyle=1;fillColor=#f8cecc;strokeColor=#b85450;fontColor=#000000;" vertex="1" parent="1">
                    <mxGeometry x="715" y="715" width="80" height="80" as="geometry"/>
                </mxCell>
                <mxCell id="254" value="?, ?" style="ellipse;whiteSpace=wrap;html=1;aspect=fixed;fontSize=29;fontStyle=1;fillColor=#d5e8d4;strokeColor=#82b366;fontColor=#000000;" vertex="1" parent="1">
                    <mxGeometry x="365" y="895" width="80" height="80" as="geometry"/>
                </mxCell>
                <mxCell id="255" value="0, 20" style="ellipse;whiteSpace=wrap;html=1;aspect=fixed;fontSize=29;fontStyle=1;fillColor=#d5e8d4;strokeColor=#82b366;fontColor=#000000;" vertex="1" parent="1">
                    <mxGeometry x="280" y="1120" width="80" height="80" as="geometry"/>
                </mxCell>
                <mxCell id="256" value="0, 0" style="ellipse;whiteSpace=wrap;html=1;aspect=fixed;fontSize=29;fontStyle=1;fillColor=#d5e8d4;strokeColor=#82b366;fontColor=#000000;" vertex="1" parent="1">
                    <mxGeometry x="505" y="1120" width="80" height="80" as="geometry"/>
                </mxCell>
                <mxCell id="257" value="0, 0" style="ellipse;whiteSpace=wrap;html=1;aspect=fixed;fontSize=29;fontStyle=1;fillColor=#f8cecc;strokeColor=#b85450;fontColor=#000000;" vertex="1" parent="1">
                    <mxGeometry x="730" y="1270" width="80" height="80" as="geometry"/>
                </mxCell>
                <mxCell id="258" value="0, 10" style="ellipse;whiteSpace=wrap;html=1;aspect=fixed;fontSize=29;fontStyle=1;fillColor=#d5e8d4;strokeColor=#82b366;fontColor=#000000;" vertex="1" parent="1">
                    <mxGeometry x="380" y="1280" width="80" height="80" as="geometry"/>
                </mxCell>
            </root>
        </mxGraphModel>
    </diagram>
</mxfile>